<svg width="282" height="97" viewBox="0 0 282 97" fill="none" xmlns="http://www.w3.org/2000/svg">
<path d="M69.9075 95H59.2825V51.9375H11.2825V95H0.657501V3.625H11.2825V42.5625H59.2825V3.625H69.9075V95ZM170.365 3.625L137.553 95H126.865L94.0525 3.625H105.178L126.553 63.8125C127.428 66.2292 128.198 68.5417 128.865 70.75C129.573 72.9583 130.198 75.0833 130.74 77.125C131.282 79.1667 131.761 81.1458 132.178 83.0625C132.594 81.1458 133.073 79.1667 133.615 77.125C134.157 75.0417 134.782 72.8958 135.49 70.6875C136.198 68.4375 136.99 66.0833 137.865 63.625L159.115 3.625H170.365ZM203.26 26.5V95H192.885V26.5H203.26ZM198.198 0.875C199.906 0.875 201.364 1.4375 202.573 2.5625C203.823 3.64583 204.448 5.35417 204.448 7.6875C204.448 9.97917 203.823 11.6875 202.573 12.8125C201.364 13.9375 199.906 14.5 198.198 14.5C196.406 14.5 194.906 13.9375 193.698 12.8125C192.531 11.6875 191.948 9.97917 191.948 7.6875C191.948 5.35417 192.531 3.64583 193.698 2.5625C194.906 1.4375 196.406 0.875 198.198 0.875ZM281.092 76.25C281.092 80.625 279.988 84.3125 277.78 87.3125C275.613 90.2708 272.488 92.5 268.405 94C264.363 95.5 259.53 96.25 253.905 96.25C249.113 96.25 244.967 95.875 241.467 95.125C237.967 94.375 234.905 93.3125 232.28 91.9375V82.375C235.072 83.75 238.405 85 242.28 86.125C246.155 87.25 250.113 87.8125 254.155 87.8125C260.072 87.8125 264.363 86.8542 267.03 84.9375C269.697 83.0208 271.03 80.4167 271.03 77.125C271.03 75.25 270.488 73.6042 269.405 72.1875C268.363 70.7292 266.592 69.3333 264.092 68C261.592 66.625 258.134 65.125 253.717 63.5C249.342 61.8333 245.551 60.1875 242.342 58.5625C239.176 56.8958 236.717 54.875 234.967 52.5C233.259 50.125 232.405 47.0417 232.405 43.25C232.405 37.4583 234.738 33.0208 239.405 29.9375C244.113 26.8125 250.28 25.25 257.905 25.25C262.03 25.25 265.884 25.6667 269.467 26.5C273.092 27.2917 276.467 28.375 279.592 29.75L276.092 38.0625C273.259 36.8542 270.238 35.8333 267.03 35C263.822 34.1667 260.551 33.75 257.217 33.75C252.426 33.75 248.738 34.5417 246.155 36.125C243.613 37.7083 242.342 39.875 242.342 42.625C242.342 44.75 242.926 46.5 244.092 47.875C245.301 49.25 247.217 50.5417 249.842 51.75C252.467 52.9583 255.926 54.375 260.217 56C264.509 57.5833 268.217 59.2292 271.342 60.9375C274.467 62.6042 276.863 64.6458 278.53 67.0625C280.238 69.4375 281.092 72.5 281.092 76.25Z" fill="#212121"/>
</svg>
