<svg width="441" height="273" viewBox="0 0 441 273" fill="none" xmlns="http://www.w3.org/2000/svg">
<path d="M81.75 137H71.125V93.9375H23.125V137H12.5V45.625H23.125V84.5625H71.125V45.625H81.75V137ZM182.208 45.625L149.395 137H138.708L105.895 45.625H117.02L138.395 105.812C139.27 108.229 140.041 110.542 140.708 112.75C141.416 114.958 142.041 117.083 142.583 119.125C143.124 121.167 143.603 123.146 144.02 125.062C144.437 123.146 144.916 121.167 145.458 119.125C145.999 117.042 146.624 114.896 147.333 112.688C148.041 110.438 148.833 108.083 149.708 105.625L170.958 45.625H182.208ZM215.103 68.5V137H204.728V68.5H215.103ZM210.04 42.875C211.748 42.875 213.207 43.4375 214.415 44.5625C215.665 45.6458 216.29 47.3542 216.29 49.6875C216.29 51.9792 215.665 53.6875 214.415 54.8125C213.207 55.9375 211.748 56.5 210.04 56.5C208.248 56.5 206.748 55.9375 205.54 54.8125C204.373 53.6875 203.79 51.9792 203.79 49.6875C203.79 47.3542 204.373 45.6458 205.54 44.5625C206.748 43.4375 208.248 42.875 210.04 42.875ZM292.935 118.25C292.935 122.625 291.831 126.312 289.622 129.312C287.456 132.271 284.331 134.5 280.247 136C276.206 137.5 271.372 138.25 265.747 138.25C260.956 138.25 256.81 137.875 253.31 137.125C249.81 136.375 246.747 135.312 244.122 133.938V124.375C246.914 125.75 250.247 127 254.122 128.125C257.997 129.25 261.956 129.812 265.997 129.812C271.914 129.812 276.206 128.854 278.872 126.938C281.539 125.021 282.872 122.417 282.872 119.125C282.872 117.25 282.331 115.604 281.247 114.188C280.206 112.729 278.435 111.333 275.935 110C273.435 108.625 269.977 107.125 265.56 105.5C261.185 103.833 257.393 102.188 254.185 100.562C251.018 98.8958 248.56 96.875 246.81 94.5C245.102 92.125 244.247 89.0417 244.247 85.25C244.247 79.4583 246.581 75.0208 251.247 71.9375C255.956 68.8125 262.122 67.25 269.747 67.25C273.872 67.25 277.727 67.6667 281.31 68.5C284.935 69.2917 288.31 70.375 291.435 71.75L287.935 80.0625C285.102 78.8542 282.081 77.8333 278.872 77C275.664 76.1667 272.393 75.75 269.06 75.75C264.268 75.75 260.581 76.5417 257.997 78.125C255.456 79.7083 254.185 81.875 254.185 84.625C254.185 86.75 254.768 88.5 255.935 89.875C257.143 91.25 259.06 92.5417 261.685 93.75C264.31 94.9583 267.768 96.375 272.06 98C276.352 99.5833 280.06 101.229 283.185 102.938C286.31 104.604 288.706 106.646 290.372 109.062C292.081 111.438 292.935 114.5 292.935 118.25Z" fill="#181818"/>
<path d="M21.8164 206L18.3008 196.938H6.85547L3.35938 206H0L11.1719 177.328H14.1602L25.2539 206H21.8164ZM17.3047 193.988L13.9648 184.984C13.8867 184.75 13.7565 184.366 13.5742 183.832C13.4049 183.298 13.2292 182.745 13.0469 182.172C12.8646 181.599 12.7148 181.137 12.5977 180.785C12.4674 181.319 12.3242 181.853 12.168 182.387C12.0247 182.908 11.8815 183.396 11.7383 183.852C11.5951 184.294 11.4714 184.672 11.3672 184.984L7.96875 193.988H17.3047ZM48.6523 187.133H43.3203V206H40.0781V187.133H36.2891V185.57L40.0781 184.496V183.07C40.0781 181.273 40.3451 179.815 40.8789 178.695C41.4128 177.562 42.1875 176.729 43.2031 176.195C44.2188 175.661 45.4557 175.395 46.9141 175.395C47.7344 175.395 48.4831 175.466 49.1602 175.609C49.8503 175.753 50.4557 175.915 50.9766 176.098L50.1367 178.656C49.694 178.513 49.1927 178.383 48.6328 178.266C48.0859 178.135 47.526 178.07 46.9531 178.07C45.7161 178.07 44.7982 178.474 44.1992 179.281C43.6133 180.076 43.3203 181.326 43.3203 183.031V184.594H48.6523V187.133ZM60.8398 184.203C62.6628 184.203 64.2253 184.607 65.5273 185.414C66.8294 186.221 67.8255 187.354 68.5156 188.812C69.2057 190.258 69.5508 191.951 69.5508 193.891V195.902H54.7656C54.8047 198.415 55.4297 200.329 56.6406 201.645C57.8516 202.96 59.5573 203.617 61.7578 203.617C63.112 203.617 64.3099 203.493 65.3516 203.246C66.3932 202.999 67.474 202.634 68.5938 202.152V205.004C67.513 205.486 66.4388 205.837 65.3711 206.059C64.3164 206.28 63.0664 206.391 61.6211 206.391C59.5638 206.391 57.7669 205.974 56.2305 205.141C54.707 204.294 53.5221 203.057 52.6758 201.43C51.8294 199.802 51.4062 197.81 51.4062 195.453C51.4062 193.148 51.7904 191.156 52.5586 189.477C53.3398 187.784 54.4336 186.482 55.8398 185.57C57.2591 184.659 58.9258 184.203 60.8398 184.203ZM60.8008 186.859C59.069 186.859 57.6888 187.426 56.6602 188.559C55.6315 189.691 55.0195 191.273 54.8242 193.305H66.1523C66.1393 192.029 65.9375 190.909 65.5469 189.945C65.1693 188.969 64.5898 188.214 63.8086 187.68C63.0273 187.133 62.0247 186.859 60.8008 186.859ZM84.7852 184.203C85.2148 184.203 85.6641 184.229 86.1328 184.281C86.6016 184.32 87.0182 184.379 87.3828 184.457L86.9727 187.465C86.6211 187.374 86.2305 187.302 85.8008 187.25C85.3711 187.198 84.9674 187.172 84.5898 187.172C83.7305 187.172 82.9167 187.348 82.1484 187.699C81.3932 188.038 80.7292 188.533 80.1562 189.184C79.5833 189.822 79.1341 190.596 78.8086 191.508C78.4831 192.406 78.3203 193.409 78.3203 194.516V206H75.0586V184.594H77.7539L78.1055 188.539H78.2422C78.6849 187.745 79.2188 187.022 79.8438 186.371C80.4688 185.707 81.1914 185.18 82.0117 184.789C82.8451 184.398 83.7695 184.203 84.7852 184.203ZM101.152 184.203C101.582 184.203 102.031 184.229 102.5 184.281C102.969 184.32 103.385 184.379 103.75 184.457L103.34 187.465C102.988 187.374 102.598 187.302 102.168 187.25C101.738 187.198 101.335 187.172 100.957 187.172C100.098 187.172 99.2839 187.348 98.5156 187.699C97.7604 188.038 97.0964 188.533 96.5234 189.184C95.9505 189.822 95.5013 190.596 95.1758 191.508C94.8503 192.406 94.6875 193.409 94.6875 194.516V206H91.4258V184.594H94.1211L94.4727 188.539H94.6094C95.0521 187.745 95.5859 187.022 96.2109 186.371C96.8359 185.707 97.5586 185.18 98.3789 184.789C99.2122 184.398 100.137 184.203 101.152 184.203ZM115.801 184.242C118.353 184.242 120.247 184.815 121.484 185.961C122.721 187.107 123.34 188.936 123.34 191.449V206H120.977L120.352 202.836H120.195C119.596 203.617 118.971 204.275 118.32 204.809C117.669 205.329 116.914 205.727 116.055 206C115.208 206.26 114.167 206.391 112.93 206.391C111.628 206.391 110.469 206.163 109.453 205.707C108.451 205.251 107.656 204.561 107.07 203.637C106.497 202.712 106.211 201.54 106.211 200.121C106.211 197.986 107.057 196.345 108.75 195.199C110.443 194.053 113.021 193.428 116.484 193.324L120.176 193.168V191.859C120.176 190.01 119.779 188.715 118.984 187.973C118.19 187.23 117.07 186.859 115.625 186.859C114.505 186.859 113.438 187.022 112.422 187.348C111.406 187.673 110.443 188.057 109.531 188.5L108.535 186.039C109.499 185.544 110.605 185.121 111.855 184.77C113.105 184.418 114.421 184.242 115.801 184.242ZM120.137 195.453L116.875 195.59C114.206 195.694 112.324 196.13 111.23 196.898C110.137 197.667 109.59 198.754 109.59 200.16C109.59 201.384 109.961 202.289 110.703 202.875C111.445 203.461 112.428 203.754 113.652 203.754C115.553 203.754 117.109 203.227 118.32 202.172C119.531 201.117 120.137 199.535 120.137 197.426V195.453ZM153.262 184.203C155.618 184.203 157.396 184.822 158.594 186.059C159.792 187.283 160.391 189.255 160.391 191.977V206H157.188V192.133C157.188 190.401 156.81 189.105 156.055 188.246C155.312 187.374 154.206 186.938 152.734 186.938C150.664 186.938 149.16 187.536 148.223 188.734C147.285 189.932 146.816 191.697 146.816 194.027V206H143.594V192.133C143.594 190.974 143.424 190.01 143.086 189.242C142.76 188.474 142.266 187.901 141.602 187.523C140.951 187.133 140.124 186.938 139.121 186.938C137.702 186.938 136.562 187.23 135.703 187.816C134.844 188.402 134.219 189.275 133.828 190.434C133.451 191.579 133.262 192.992 133.262 194.672V206H130.02V184.594H132.637L133.125 187.621H133.301C133.73 186.879 134.271 186.254 134.922 185.746C135.573 185.238 136.302 184.854 137.109 184.594C137.917 184.333 138.776 184.203 139.688 184.203C141.315 184.203 142.676 184.509 143.77 185.121C144.876 185.72 145.677 186.638 146.172 187.875H146.348C147.051 186.638 148.014 185.72 149.238 185.121C150.462 184.509 151.803 184.203 153.262 184.203ZM175.293 184.203C177.116 184.203 178.678 184.607 179.98 185.414C181.283 186.221 182.279 187.354 182.969 188.812C183.659 190.258 184.004 191.951 184.004 193.891V195.902H169.219C169.258 198.415 169.883 200.329 171.094 201.645C172.305 202.96 174.01 203.617 176.211 203.617C177.565 203.617 178.763 203.493 179.805 203.246C180.846 202.999 181.927 202.634 183.047 202.152V205.004C181.966 205.486 180.892 205.837 179.824 206.059C178.77 206.28 177.52 206.391 176.074 206.391C174.017 206.391 172.22 205.974 170.684 205.141C169.16 204.294 167.975 203.057 167.129 201.43C166.283 199.802 165.859 197.81 165.859 195.453C165.859 193.148 166.243 191.156 167.012 189.477C167.793 187.784 168.887 186.482 170.293 185.57C171.712 184.659 173.379 184.203 175.293 184.203ZM175.254 186.859C173.522 186.859 172.142 187.426 171.113 188.559C170.085 189.691 169.473 191.273 169.277 193.305H180.605C180.592 192.029 180.391 190.909 180 189.945C179.622 188.969 179.043 188.214 178.262 187.68C177.48 187.133 176.478 186.859 175.254 186.859ZM199.648 184.203C202.188 184.203 204.108 184.828 205.41 186.078C206.712 187.315 207.363 189.307 207.363 192.055V206H204.16V192.27C204.16 190.486 203.75 189.151 202.93 188.266C202.122 187.38 200.879 186.938 199.199 186.938C196.829 186.938 195.163 187.608 194.199 188.949C193.236 190.29 192.754 192.237 192.754 194.789V206H189.512V184.594H192.129L192.617 187.68H192.793C193.249 186.924 193.828 186.293 194.531 185.785C195.234 185.264 196.022 184.874 196.895 184.613C197.767 184.34 198.685 184.203 199.648 184.203ZM220.957 203.734C221.491 203.734 222.038 203.689 222.598 203.598C223.158 203.507 223.613 203.396 223.965 203.266V205.785C223.587 205.954 223.06 206.098 222.383 206.215C221.719 206.332 221.068 206.391 220.43 206.391C219.297 206.391 218.268 206.195 217.344 205.805C216.419 205.401 215.677 204.724 215.117 203.773C214.57 202.823 214.297 201.508 214.297 199.828V187.133H211.25V185.551L214.316 184.281L215.605 179.633H217.559V184.594H223.828V187.133H217.559V199.73C217.559 201.072 217.865 202.074 218.477 202.738C219.102 203.402 219.928 203.734 220.957 203.734ZM236.309 184.242C238.861 184.242 240.755 184.815 241.992 185.961C243.229 187.107 243.848 188.936 243.848 191.449V206H241.484L240.859 202.836H240.703C240.104 203.617 239.479 204.275 238.828 204.809C238.177 205.329 237.422 205.727 236.562 206C235.716 206.26 234.674 206.391 233.438 206.391C232.135 206.391 230.977 206.163 229.961 205.707C228.958 205.251 228.164 204.561 227.578 203.637C227.005 202.712 226.719 201.54 226.719 200.121C226.719 197.986 227.565 196.345 229.258 195.199C230.951 194.053 233.529 193.428 236.992 193.324L240.684 193.168V191.859C240.684 190.01 240.286 188.715 239.492 187.973C238.698 187.23 237.578 186.859 236.133 186.859C235.013 186.859 233.945 187.022 232.93 187.348C231.914 187.673 230.951 188.057 230.039 188.5L229.043 186.039C230.007 185.544 231.113 185.121 232.363 184.77C233.613 184.418 234.928 184.242 236.309 184.242ZM240.645 195.453L237.383 195.59C234.714 195.694 232.832 196.13 231.738 196.898C230.645 197.667 230.098 198.754 230.098 200.16C230.098 201.384 230.469 202.289 231.211 202.875C231.953 203.461 232.936 203.754 234.16 203.754C236.061 203.754 237.617 203.227 238.828 202.172C240.039 201.117 240.645 199.535 240.645 197.426V195.453ZM268.535 206.391C265.827 206.391 263.678 205.466 262.09 203.617C260.514 201.768 259.727 199.021 259.727 195.375C259.727 191.69 260.534 188.91 262.148 187.035C263.763 185.147 265.911 184.203 268.594 184.203C269.727 184.203 270.716 184.353 271.562 184.652C272.409 184.952 273.138 185.355 273.75 185.863C274.362 186.358 274.876 186.924 275.293 187.562H275.527C275.475 187.159 275.423 186.605 275.371 185.902C275.319 185.199 275.293 184.626 275.293 184.184V175.609H278.535V206H275.918L275.43 202.953H275.293C274.889 203.591 274.375 204.171 273.75 204.691C273.138 205.212 272.402 205.629 271.543 205.941C270.697 206.241 269.694 206.391 268.535 206.391ZM269.043 203.695C271.335 203.695 272.956 203.044 273.906 201.742C274.857 200.44 275.332 198.507 275.332 195.941V195.355C275.332 192.634 274.876 190.544 273.965 189.086C273.066 187.628 271.426 186.898 269.043 186.898C267.051 186.898 265.56 187.667 264.57 189.203C263.581 190.727 263.086 192.81 263.086 195.453C263.086 198.083 263.574 200.115 264.551 201.547C265.54 202.979 267.038 203.695 269.043 203.695ZM293.652 184.203C295.475 184.203 297.038 184.607 298.34 185.414C299.642 186.221 300.638 187.354 301.328 188.812C302.018 190.258 302.363 191.951 302.363 193.891V195.902H287.578C287.617 198.415 288.242 200.329 289.453 201.645C290.664 202.96 292.37 203.617 294.57 203.617C295.924 203.617 297.122 203.493 298.164 203.246C299.206 202.999 300.286 202.634 301.406 202.152V205.004C300.326 205.486 299.251 205.837 298.184 206.059C297.129 206.28 295.879 206.391 294.434 206.391C292.376 206.391 290.579 205.974 289.043 205.141C287.52 204.294 286.335 203.057 285.488 201.43C284.642 199.802 284.219 197.81 284.219 195.453C284.219 193.148 284.603 191.156 285.371 189.477C286.152 187.784 287.246 186.482 288.652 185.57C290.072 184.659 291.738 184.203 293.652 184.203ZM293.613 186.859C291.882 186.859 290.501 187.426 289.473 188.559C288.444 189.691 287.832 191.273 287.637 193.305H298.965C298.952 192.029 298.75 190.909 298.359 189.945C297.982 188.969 297.402 188.214 296.621 187.68C295.84 187.133 294.837 186.859 293.613 186.859ZM326.27 184.242C328.822 184.242 330.716 184.815 331.953 185.961C333.19 187.107 333.809 188.936 333.809 191.449V206H331.445L330.82 202.836H330.664C330.065 203.617 329.44 204.275 328.789 204.809C328.138 205.329 327.383 205.727 326.523 206C325.677 206.26 324.635 206.391 323.398 206.391C322.096 206.391 320.938 206.163 319.922 205.707C318.919 205.251 318.125 204.561 317.539 203.637C316.966 202.712 316.68 201.54 316.68 200.121C316.68 197.986 317.526 196.345 319.219 195.199C320.911 194.053 323.49 193.428 326.953 193.324L330.645 193.168V191.859C330.645 190.01 330.247 188.715 329.453 187.973C328.659 187.23 327.539 186.859 326.094 186.859C324.974 186.859 323.906 187.022 322.891 187.348C321.875 187.673 320.911 188.057 320 188.5L319.004 186.039C319.967 185.544 321.074 185.121 322.324 184.77C323.574 184.418 324.889 184.242 326.27 184.242ZM330.605 195.453L327.344 195.59C324.674 195.694 322.793 196.13 321.699 196.898C320.605 197.667 320.059 198.754 320.059 200.16C320.059 201.384 320.43 202.289 321.172 202.875C321.914 203.461 322.897 203.754 324.121 203.754C326.022 203.754 327.578 203.227 328.789 202.172C330 201.117 330.605 199.535 330.605 197.426V195.453ZM337.91 215.609C337.246 215.609 336.667 215.557 336.172 215.453C335.677 215.362 335.247 215.251 334.883 215.121V212.484C335.286 212.615 335.697 212.712 336.113 212.777C336.53 212.855 336.999 212.895 337.52 212.895C338.405 212.895 339.121 212.647 339.668 212.152C340.215 211.658 340.488 210.759 340.488 209.457V184.594H343.73V209.379C343.73 210.681 343.522 211.794 343.105 212.719C342.689 213.656 342.051 214.372 341.191 214.867C340.332 215.362 339.238 215.609 337.91 215.609ZM340.195 178.715C340.195 177.986 340.378 177.452 340.742 177.113C341.12 176.762 341.589 176.586 342.148 176.586C342.682 176.586 343.138 176.762 343.516 177.113C343.906 177.452 344.102 177.986 344.102 178.715C344.102 179.431 343.906 179.965 343.516 180.316C343.138 180.668 342.682 180.844 342.148 180.844C341.589 180.844 341.12 180.668 340.742 180.316C340.378 179.965 340.195 179.431 340.195 178.715ZM368.281 184.594V206H365.625L365.156 202.992H364.98C364.538 203.734 363.965 204.359 363.262 204.867C362.559 205.375 361.764 205.753 360.879 206C360.007 206.26 359.076 206.391 358.086 206.391C356.393 206.391 354.974 206.117 353.828 205.57C352.682 205.023 351.816 204.177 351.23 203.031C350.658 201.885 350.371 200.414 350.371 198.617V184.594H353.652V198.383C353.652 200.167 354.056 201.501 354.863 202.387C355.671 203.259 356.901 203.695 358.555 203.695C360.143 203.695 361.406 203.396 362.344 202.797C363.294 202.198 363.978 201.319 364.395 200.16C364.811 198.988 365.02 197.556 365.02 195.863V184.594H368.281ZM382.754 206.391C380.046 206.391 377.897 205.466 376.309 203.617C374.733 201.768 373.945 199.021 373.945 195.375C373.945 191.69 374.753 188.91 376.367 187.035C377.982 185.147 380.13 184.203 382.812 184.203C383.945 184.203 384.935 184.353 385.781 184.652C386.628 184.952 387.357 185.355 387.969 185.863C388.581 186.358 389.095 186.924 389.512 187.562H389.746C389.694 187.159 389.642 186.605 389.59 185.902C389.538 185.199 389.512 184.626 389.512 184.184V175.609H392.754V206H390.137L389.648 202.953H389.512C389.108 203.591 388.594 204.171 387.969 204.691C387.357 205.212 386.621 205.629 385.762 205.941C384.915 206.241 383.913 206.391 382.754 206.391ZM383.262 203.695C385.553 203.695 387.174 203.044 388.125 201.742C389.076 200.44 389.551 198.507 389.551 195.941V195.355C389.551 192.634 389.095 190.544 388.184 189.086C387.285 187.628 385.645 186.898 383.262 186.898C381.27 186.898 379.779 187.667 378.789 189.203C377.799 190.727 377.305 192.81 377.305 195.453C377.305 198.083 377.793 200.115 378.77 201.547C379.759 202.979 381.257 203.695 383.262 203.695ZM407.637 184.242C410.189 184.242 412.083 184.815 413.32 185.961C414.557 187.107 415.176 188.936 415.176 191.449V206H412.812L412.188 202.836H412.031C411.432 203.617 410.807 204.275 410.156 204.809C409.505 205.329 408.75 205.727 407.891 206C407.044 206.26 406.003 206.391 404.766 206.391C403.464 206.391 402.305 206.163 401.289 205.707C400.286 205.251 399.492 204.561 398.906 203.637C398.333 202.712 398.047 201.54 398.047 200.121C398.047 197.986 398.893 196.345 400.586 195.199C402.279 194.053 404.857 193.428 408.32 193.324L412.012 193.168V191.859C412.012 190.01 411.615 188.715 410.82 187.973C410.026 187.23 408.906 186.859 407.461 186.859C406.341 186.859 405.273 187.022 404.258 187.348C403.242 187.673 402.279 188.057 401.367 188.5L400.371 186.039C401.335 185.544 402.441 185.121 403.691 184.77C404.941 184.418 406.257 184.242 407.637 184.242ZM411.973 195.453L408.711 195.59C406.042 195.694 404.16 196.13 403.066 196.898C401.973 197.667 401.426 198.754 401.426 200.16C401.426 201.384 401.797 202.289 402.539 202.875C403.281 203.461 404.264 203.754 405.488 203.754C407.389 203.754 408.945 203.227 410.156 202.172C411.367 201.117 411.973 199.535 411.973 197.426V195.453ZM11.4258 238.242C13.9779 238.242 15.8724 238.815 17.1094 239.961C18.3464 241.107 18.9648 242.936 18.9648 245.449V260H16.6016L15.9766 256.836H15.8203C15.2214 257.617 14.5964 258.275 13.9453 258.809C13.2943 259.329 12.5391 259.727 11.6797 260C10.8333 260.26 9.79167 260.391 8.55469 260.391C7.2526 260.391 6.09375 260.163 5.07812 259.707C4.07552 259.251 3.28125 258.561 2.69531 257.637C2.1224 256.712 1.83594 255.54 1.83594 254.121C1.83594 251.986 2.68229 250.345 4.375 249.199C6.06771 248.053 8.64583 247.428 12.1094 247.324L15.8008 247.168V245.859C15.8008 244.01 15.4036 242.715 14.6094 241.973C13.8151 241.23 12.6953 240.859 11.25 240.859C10.1302 240.859 9.0625 241.022 8.04688 241.348C7.03125 241.673 6.06771 242.057 5.15625 242.5L4.16016 240.039C5.1237 239.544 6.23047 239.121 7.48047 238.77C8.73047 238.418 10.0456 238.242 11.4258 238.242ZM15.7617 249.453L12.5 249.59C9.83073 249.694 7.94922 250.13 6.85547 250.898C5.76172 251.667 5.21484 252.754 5.21484 254.16C5.21484 255.384 5.58594 256.289 6.32812 256.875C7.07031 257.461 8.05339 257.754 9.27734 257.754C11.1784 257.754 12.7344 257.227 13.9453 256.172C15.1562 255.117 15.7617 253.535 15.7617 251.426V249.453ZM44.1016 249.258C44.1016 251.016 43.8737 252.585 43.418 253.965C42.9622 255.345 42.3047 256.51 41.4453 257.461C40.5859 258.411 39.5443 259.141 38.3203 259.648C37.1094 260.143 35.7357 260.391 34.1992 260.391C32.7669 260.391 31.4518 260.143 30.2539 259.648C29.069 259.141 28.0404 258.411 27.168 257.461C26.3086 256.51 25.638 255.345 25.1562 253.965C24.6875 252.585 24.4531 251.016 24.4531 249.258C24.4531 246.914 24.8503 244.922 25.6445 243.281C26.4388 241.628 27.5716 240.371 29.043 239.512C30.5273 238.639 32.2917 238.203 34.3359 238.203C36.2891 238.203 37.9948 238.639 39.4531 239.512C40.9245 240.384 42.0638 241.647 42.8711 243.301C43.6914 244.941 44.1016 246.927 44.1016 249.258ZM27.8125 249.258C27.8125 250.977 28.0404 252.467 28.4961 253.73C28.9518 254.993 29.6549 255.97 30.6055 256.66C31.556 257.35 32.7799 257.695 34.2773 257.695C35.7617 257.695 36.9792 257.35 37.9297 256.66C38.8932 255.97 39.6029 254.993 40.0586 253.73C40.5143 252.467 40.7422 250.977 40.7422 249.258C40.7422 247.552 40.5143 246.081 40.0586 244.844C39.6029 243.594 38.8997 242.63 37.9492 241.953C36.9987 241.276 35.7682 240.938 34.2578 240.938C32.0312 240.938 30.3971 241.673 29.3555 243.145C28.3268 244.616 27.8125 246.654 27.8125 249.258ZM63.5547 254.141C63.5547 255.508 63.2096 256.66 62.5195 257.598C61.8424 258.522 60.8659 259.219 59.5898 259.688C58.3268 260.156 56.8164 260.391 55.0586 260.391C53.5612 260.391 52.2656 260.273 51.1719 260.039C50.0781 259.805 49.1211 259.473 48.3008 259.043V256.055C49.1732 256.484 50.2148 256.875 51.4258 257.227C52.6367 257.578 53.8737 257.754 55.1367 257.754C56.9857 257.754 58.3268 257.454 59.1602 256.855C59.9935 256.257 60.4102 255.443 60.4102 254.414C60.4102 253.828 60.2409 253.314 59.9023 252.871C59.5768 252.415 59.0234 251.979 58.2422 251.562C57.4609 251.133 56.3802 250.664 55 250.156C53.6328 249.635 52.4479 249.121 51.4453 248.613C50.4557 248.092 49.6875 247.461 49.1406 246.719C48.6068 245.977 48.3398 245.013 48.3398 243.828C48.3398 242.018 49.069 240.632 50.5273 239.668C51.9987 238.691 53.9258 238.203 56.3086 238.203C57.5977 238.203 58.8021 238.333 59.9219 238.594C61.0547 238.841 62.1094 239.18 63.0859 239.609L61.9922 242.207C61.1068 241.829 60.1628 241.51 59.1602 241.25C58.1576 240.99 57.1354 240.859 56.0938 240.859C54.5964 240.859 53.444 241.107 52.6367 241.602C51.8424 242.096 51.4453 242.773 51.4453 243.633C51.4453 244.297 51.6276 244.844 51.9922 245.273C52.3698 245.703 52.9688 246.107 53.7891 246.484C54.6094 246.862 55.6901 247.305 57.0312 247.812C58.3724 248.307 59.5312 248.822 60.5078 249.355C61.4844 249.876 62.2331 250.514 62.7539 251.27C63.2878 252.012 63.5547 252.969 63.5547 254.141ZM86.7773 260.391C84.069 260.391 81.9206 259.466 80.332 257.617C78.7565 255.768 77.9688 253.021 77.9688 249.375C77.9688 245.69 78.776 242.91 80.3906 241.035C82.0052 239.147 84.1536 238.203 86.8359 238.203C87.9688 238.203 88.9583 238.353 89.8047 238.652C90.651 238.952 91.3802 239.355 91.9922 239.863C92.6042 240.358 93.1185 240.924 93.5352 241.562H93.7695C93.7174 241.159 93.6654 240.605 93.6133 239.902C93.5612 239.199 93.5352 238.626 93.5352 238.184V229.609H96.7773V260H94.1602L93.6719 256.953H93.5352C93.1315 257.591 92.6172 258.171 91.9922 258.691C91.3802 259.212 90.6445 259.629 89.7852 259.941C88.9388 260.241 87.9362 260.391 86.7773 260.391ZM87.2852 257.695C89.5768 257.695 91.1979 257.044 92.1484 255.742C93.099 254.44 93.5742 252.507 93.5742 249.941V249.355C93.5742 246.634 93.1185 244.544 92.207 243.086C91.3086 241.628 89.668 240.898 87.2852 240.898C85.293 240.898 83.8021 241.667 82.8125 243.203C81.8229 244.727 81.3281 246.81 81.3281 249.453C81.3281 252.083 81.8164 254.115 82.793 255.547C83.7826 256.979 85.2799 257.695 87.2852 257.695ZM111.895 238.203C113.717 238.203 115.28 238.607 116.582 239.414C117.884 240.221 118.88 241.354 119.57 242.812C120.26 244.258 120.605 245.951 120.605 247.891V249.902H105.82C105.859 252.415 106.484 254.329 107.695 255.645C108.906 256.96 110.612 257.617 112.812 257.617C114.167 257.617 115.365 257.493 116.406 257.246C117.448 256.999 118.529 256.634 119.648 256.152V259.004C118.568 259.486 117.493 259.837 116.426 260.059C115.371 260.28 114.121 260.391 112.676 260.391C110.618 260.391 108.822 259.974 107.285 259.141C105.762 258.294 104.577 257.057 103.73 255.43C102.884 253.802 102.461 251.81 102.461 249.453C102.461 247.148 102.845 245.156 103.613 243.477C104.395 241.784 105.488 240.482 106.895 239.57C108.314 238.659 109.98 238.203 111.895 238.203ZM111.855 240.859C110.124 240.859 108.743 241.426 107.715 242.559C106.686 243.691 106.074 245.273 105.879 247.305H117.207C117.194 246.029 116.992 244.909 116.602 243.945C116.224 242.969 115.645 242.214 114.863 241.68C114.082 241.133 113.079 240.859 111.855 240.859ZM135.645 241.133H130.312V260H127.07V241.133H123.281V239.57L127.07 238.496V237.07C127.07 235.273 127.337 233.815 127.871 232.695C128.405 231.562 129.18 230.729 130.195 230.195C131.211 229.661 132.448 229.395 133.906 229.395C134.727 229.395 135.475 229.466 136.152 229.609C136.842 229.753 137.448 229.915 137.969 230.098L137.129 232.656C136.686 232.513 136.185 232.383 135.625 232.266C135.078 232.135 134.518 232.07 133.945 232.07C132.708 232.07 131.79 232.474 131.191 233.281C130.605 234.076 130.312 235.326 130.312 237.031V238.594H135.645V241.133ZM142.812 238.594V260H139.57V238.594H142.812ZM141.23 230.586C141.764 230.586 142.22 230.762 142.598 231.113C142.988 231.452 143.184 231.986 143.184 232.715C143.184 233.431 142.988 233.965 142.598 234.316C142.22 234.668 141.764 234.844 141.23 234.844C140.671 234.844 140.202 234.668 139.824 234.316C139.46 233.965 139.277 233.431 139.277 232.715C139.277 231.986 139.46 231.452 139.824 231.113C140.202 230.762 140.671 230.586 141.23 230.586ZM158.242 260.391C156.315 260.391 154.616 259.993 153.145 259.199C151.673 258.405 150.527 257.194 149.707 255.566C148.887 253.939 148.477 251.888 148.477 249.414C148.477 246.823 148.906 244.707 149.766 243.066C150.638 241.413 151.836 240.189 153.359 239.395C154.883 238.6 156.615 238.203 158.555 238.203C159.622 238.203 160.651 238.314 161.641 238.535C162.643 238.743 163.464 239.01 164.102 239.336L163.125 242.051C162.474 241.79 161.719 241.556 160.859 241.348C160.013 241.139 159.219 241.035 158.477 241.035C156.992 241.035 155.755 241.354 154.766 241.992C153.789 242.63 153.053 243.568 152.559 244.805C152.077 246.042 151.836 247.565 151.836 249.375C151.836 251.107 152.07 252.585 152.539 253.809C153.021 255.033 153.73 255.97 154.668 256.621C155.618 257.259 156.803 257.578 158.223 257.578C159.355 257.578 160.378 257.461 161.289 257.227C162.201 256.979 163.027 256.693 163.77 256.367V259.258C163.053 259.622 162.253 259.902 161.367 260.098C160.495 260.293 159.453 260.391 158.242 260.391ZM172.09 238.594V260H168.848V238.594H172.09ZM170.508 230.586C171.042 230.586 171.497 230.762 171.875 231.113C172.266 231.452 172.461 231.986 172.461 232.715C172.461 233.431 172.266 233.965 171.875 234.316C171.497 234.668 171.042 234.844 170.508 234.844C169.948 234.844 169.479 234.668 169.102 234.316C168.737 233.965 168.555 233.431 168.555 232.715C168.555 231.986 168.737 231.452 169.102 231.113C169.479 230.762 169.948 230.586 170.508 230.586ZM187.207 238.203C189.03 238.203 190.592 238.607 191.895 239.414C193.197 240.221 194.193 241.354 194.883 242.812C195.573 244.258 195.918 245.951 195.918 247.891V249.902H181.133C181.172 252.415 181.797 254.329 183.008 255.645C184.219 256.96 185.924 257.617 188.125 257.617C189.479 257.617 190.677 257.493 191.719 257.246C192.76 256.999 193.841 256.634 194.961 256.152V259.004C193.88 259.486 192.806 259.837 191.738 260.059C190.684 260.28 189.434 260.391 187.988 260.391C185.931 260.391 184.134 259.974 182.598 259.141C181.074 258.294 179.889 257.057 179.043 255.43C178.197 253.802 177.773 251.81 177.773 249.453C177.773 247.148 178.158 245.156 178.926 243.477C179.707 241.784 180.801 240.482 182.207 239.57C183.626 238.659 185.293 238.203 187.207 238.203ZM187.168 240.859C185.436 240.859 184.056 241.426 183.027 242.559C181.999 243.691 181.387 245.273 181.191 247.305H192.52C192.507 246.029 192.305 244.909 191.914 243.945C191.536 242.969 190.957 242.214 190.176 241.68C189.395 241.133 188.392 240.859 187.168 240.859ZM211.562 238.203C214.102 238.203 216.022 238.828 217.324 240.078C218.626 241.315 219.277 243.307 219.277 246.055V260H216.074V246.27C216.074 244.486 215.664 243.151 214.844 242.266C214.036 241.38 212.793 240.938 211.113 240.938C208.743 240.938 207.077 241.608 206.113 242.949C205.15 244.29 204.668 246.237 204.668 248.789V260H201.426V238.594H204.043L204.531 241.68H204.707C205.163 240.924 205.742 240.293 206.445 239.785C207.148 239.264 207.936 238.874 208.809 238.613C209.681 238.34 210.599 238.203 211.562 238.203ZM232.871 257.734C233.405 257.734 233.952 257.689 234.512 257.598C235.072 257.507 235.527 257.396 235.879 257.266V259.785C235.501 259.954 234.974 260.098 234.297 260.215C233.633 260.332 232.982 260.391 232.344 260.391C231.211 260.391 230.182 260.195 229.258 259.805C228.333 259.401 227.591 258.724 227.031 257.773C226.484 256.823 226.211 255.508 226.211 253.828V241.133H223.164V239.551L226.23 238.281L227.52 233.633H229.473V238.594H235.742V241.133H229.473V253.73C229.473 255.072 229.779 256.074 230.391 256.738C231.016 257.402 231.842 257.734 232.871 257.734ZM248.457 238.203C250.28 238.203 251.842 238.607 253.145 239.414C254.447 240.221 255.443 241.354 256.133 242.812C256.823 244.258 257.168 245.951 257.168 247.891V249.902H242.383C242.422 252.415 243.047 254.329 244.258 255.645C245.469 256.96 247.174 257.617 249.375 257.617C250.729 257.617 251.927 257.493 252.969 257.246C254.01 256.999 255.091 256.634 256.211 256.152V259.004C255.13 259.486 254.056 259.837 252.988 260.059C251.934 260.28 250.684 260.391 249.238 260.391C247.181 260.391 245.384 259.974 243.848 259.141C242.324 258.294 241.139 257.057 240.293 255.43C239.447 253.802 239.023 251.81 239.023 249.453C239.023 247.148 239.408 245.156 240.176 243.477C240.957 241.784 242.051 240.482 243.457 239.57C244.876 238.659 246.543 238.203 248.457 238.203ZM248.418 240.859C246.686 240.859 245.306 241.426 244.277 242.559C243.249 243.691 242.637 245.273 242.441 247.305H253.77C253.757 246.029 253.555 244.909 253.164 243.945C252.786 242.969 252.207 242.214 251.426 241.68C250.645 241.133 249.642 240.859 248.418 240.859ZM276.523 254.141C276.523 255.508 276.178 256.66 275.488 257.598C274.811 258.522 273.835 259.219 272.559 259.688C271.296 260.156 269.785 260.391 268.027 260.391C266.53 260.391 265.234 260.273 264.141 260.039C263.047 259.805 262.09 259.473 261.27 259.043V256.055C262.142 256.484 263.184 256.875 264.395 257.227C265.605 257.578 266.842 257.754 268.105 257.754C269.954 257.754 271.296 257.454 272.129 256.855C272.962 256.257 273.379 255.443 273.379 254.414C273.379 253.828 273.21 253.314 272.871 252.871C272.546 252.415 271.992 251.979 271.211 251.562C270.43 251.133 269.349 250.664 267.969 250.156C266.602 249.635 265.417 249.121 264.414 248.613C263.424 248.092 262.656 247.461 262.109 246.719C261.576 245.977 261.309 245.013 261.309 243.828C261.309 242.018 262.038 240.632 263.496 239.668C264.967 238.691 266.895 238.203 269.277 238.203C270.566 238.203 271.771 238.333 272.891 238.594C274.023 238.841 275.078 239.18 276.055 239.609L274.961 242.207C274.076 241.829 273.132 241.51 272.129 241.25C271.126 240.99 270.104 240.859 269.062 240.859C267.565 240.859 266.413 241.107 265.605 241.602C264.811 242.096 264.414 242.773 264.414 243.633C264.414 244.297 264.596 244.844 264.961 245.273C265.339 245.703 265.938 246.107 266.758 246.484C267.578 246.862 268.659 247.305 270 247.812C271.341 248.307 272.5 248.822 273.477 249.355C274.453 249.876 275.202 250.514 275.723 251.27C276.257 252.012 276.523 252.969 276.523 254.141ZM296.836 260L288.711 238.594H292.188L296.895 251.543C297.22 252.428 297.552 253.405 297.891 254.473C298.229 255.54 298.464 256.4 298.594 257.051H298.73C298.887 256.4 299.147 255.54 299.512 254.473C299.876 253.392 300.208 252.415 300.508 251.543L305.215 238.594H308.691L300.547 260H296.836ZM315.371 238.594V260H312.129V238.594H315.371ZM313.789 230.586C314.323 230.586 314.779 230.762 315.156 231.113C315.547 231.452 315.742 231.986 315.742 232.715C315.742 233.431 315.547 233.965 315.156 234.316C314.779 234.668 314.323 234.844 313.789 234.844C313.229 234.844 312.76 234.668 312.383 234.316C312.018 233.965 311.836 233.431 311.836 232.715C311.836 231.986 312.018 231.452 312.383 231.113C312.76 230.762 313.229 230.586 313.789 230.586ZM336.094 254.141C336.094 255.508 335.749 256.66 335.059 257.598C334.382 258.522 333.405 259.219 332.129 259.688C330.866 260.156 329.355 260.391 327.598 260.391C326.1 260.391 324.805 260.273 323.711 260.039C322.617 259.805 321.66 259.473 320.84 259.043V256.055C321.712 256.484 322.754 256.875 323.965 257.227C325.176 257.578 326.413 257.754 327.676 257.754C329.525 257.754 330.866 257.454 331.699 256.855C332.533 256.257 332.949 255.443 332.949 254.414C332.949 253.828 332.78 253.314 332.441 252.871C332.116 252.415 331.562 251.979 330.781 251.562C330 251.133 328.919 250.664 327.539 250.156C326.172 249.635 324.987 249.121 323.984 248.613C322.995 248.092 322.227 247.461 321.68 246.719C321.146 245.977 320.879 245.013 320.879 243.828C320.879 242.018 321.608 240.632 323.066 239.668C324.538 238.691 326.465 238.203 328.848 238.203C330.137 238.203 331.341 238.333 332.461 238.594C333.594 238.841 334.648 239.18 335.625 239.609L334.531 242.207C333.646 241.829 332.702 241.51 331.699 241.25C330.697 240.99 329.674 240.859 328.633 240.859C327.135 240.859 325.983 241.107 325.176 241.602C324.382 242.096 323.984 242.773 323.984 243.633C323.984 244.297 324.167 244.844 324.531 245.273C324.909 245.703 325.508 246.107 326.328 246.484C327.148 246.862 328.229 247.305 329.57 247.812C330.911 248.307 332.07 248.822 333.047 249.355C334.023 249.876 334.772 250.514 335.293 251.27C335.827 252.012 336.094 252.969 336.094 254.141ZM358.984 238.594V260H356.328L355.859 256.992H355.684C355.241 257.734 354.668 258.359 353.965 258.867C353.262 259.375 352.467 259.753 351.582 260C350.71 260.26 349.779 260.391 348.789 260.391C347.096 260.391 345.677 260.117 344.531 259.57C343.385 259.023 342.52 258.177 341.934 257.031C341.361 255.885 341.074 254.414 341.074 252.617V238.594H344.355V252.383C344.355 254.167 344.759 255.501 345.566 256.387C346.374 257.259 347.604 257.695 349.258 257.695C350.846 257.695 352.109 257.396 353.047 256.797C353.997 256.198 354.681 255.319 355.098 254.16C355.514 252.988 355.723 251.556 355.723 249.863V238.594H358.984ZM373.848 238.242C376.4 238.242 378.294 238.815 379.531 239.961C380.768 241.107 381.387 242.936 381.387 245.449V260H379.023L378.398 256.836H378.242C377.643 257.617 377.018 258.275 376.367 258.809C375.716 259.329 374.961 259.727 374.102 260C373.255 260.26 372.214 260.391 370.977 260.391C369.674 260.391 368.516 260.163 367.5 259.707C366.497 259.251 365.703 258.561 365.117 257.637C364.544 256.712 364.258 255.54 364.258 254.121C364.258 251.986 365.104 250.345 366.797 249.199C368.49 248.053 371.068 247.428 374.531 247.324L378.223 247.168V245.859C378.223 244.01 377.826 242.715 377.031 241.973C376.237 241.23 375.117 240.859 373.672 240.859C372.552 240.859 371.484 241.022 370.469 241.348C369.453 241.673 368.49 242.057 367.578 242.5L366.582 240.039C367.546 239.544 368.652 239.121 369.902 238.77C371.152 238.418 372.467 238.242 373.848 238.242ZM378.184 249.453L374.922 249.59C372.253 249.694 370.371 250.13 369.277 250.898C368.184 251.667 367.637 252.754 367.637 254.16C367.637 255.384 368.008 256.289 368.75 256.875C369.492 257.461 370.475 257.754 371.699 257.754C373.6 257.754 375.156 257.227 376.367 256.172C377.578 255.117 378.184 253.535 378.184 251.426V249.453ZM391.309 238.594V260H388.066V238.594H391.309ZM389.727 230.586C390.26 230.586 390.716 230.762 391.094 231.113C391.484 231.452 391.68 231.986 391.68 232.715C391.68 233.431 391.484 233.965 391.094 234.316C390.716 234.668 390.26 234.844 389.727 234.844C389.167 234.844 388.698 234.668 388.32 234.316C387.956 233.965 387.773 233.431 387.773 232.715C387.773 231.986 387.956 231.452 388.32 231.113C388.698 230.762 389.167 230.586 389.727 230.586ZM412.031 254.141C412.031 255.508 411.686 256.66 410.996 257.598C410.319 258.522 409.342 259.219 408.066 259.688C406.803 260.156 405.293 260.391 403.535 260.391C402.038 260.391 400.742 260.273 399.648 260.039C398.555 259.805 397.598 259.473 396.777 259.043V256.055C397.65 256.484 398.691 256.875 399.902 257.227C401.113 257.578 402.35 257.754 403.613 257.754C405.462 257.754 406.803 257.454 407.637 256.855C408.47 256.257 408.887 255.443 408.887 254.414C408.887 253.828 408.717 253.314 408.379 252.871C408.053 252.415 407.5 251.979 406.719 251.562C405.938 251.133 404.857 250.664 403.477 250.156C402.109 249.635 400.924 249.121 399.922 248.613C398.932 248.092 398.164 247.461 397.617 246.719C397.083 245.977 396.816 245.013 396.816 243.828C396.816 242.018 397.546 240.632 399.004 239.668C400.475 238.691 402.402 238.203 404.785 238.203C406.074 238.203 407.279 238.333 408.398 238.594C409.531 238.841 410.586 239.18 411.562 239.609L410.469 242.207C409.583 241.829 408.639 241.51 407.637 241.25C406.634 240.99 405.612 240.859 404.57 240.859C403.073 240.859 401.921 241.107 401.113 241.602C400.319 242.096 399.922 242.773 399.922 243.633C399.922 244.297 400.104 244.844 400.469 245.273C400.846 245.703 401.445 246.107 402.266 246.484C403.086 246.862 404.167 247.305 405.508 247.812C406.849 248.307 408.008 248.822 408.984 249.355C409.961 249.876 410.71 250.514 411.23 251.27C411.764 252.012 412.031 252.969 412.031 254.141ZM416.758 257.969C416.758 257.057 416.979 256.413 417.422 256.035C417.865 255.645 418.405 255.449 419.043 255.449C419.707 255.449 420.267 255.645 420.723 256.035C421.178 256.413 421.406 257.057 421.406 257.969C421.406 258.867 421.178 259.525 420.723 259.941C420.267 260.345 419.707 260.547 419.043 260.547C418.405 260.547 417.865 260.345 417.422 259.941C416.979 259.525 416.758 258.867 416.758 257.969Z" fill="#181818"/>
</svg>
